<svg width="38" height="38" viewBox="0 0 38 38" fill="none" xmlns="http://www.w3.org/2000/svg">
<g clip-path="url(#clip0_14803_11722)">
<path d="M13.1099 11.6102C11.951 11.6292 10.5352 11.8538 10.5352 11.8538L10.6195 14.2918L13.5066 14.2895C14.2002 14.2779 14.4606 13.7819 14.4519 13.2218C14.4369 12.3042 14.0102 11.5952 13.1099 11.6096V11.6102Z" fill="#FF1212"/>
<path d="M12.3054 22.7083C10.4715 22.7683 9.43905 24.056 9.51354 26.3375C9.58918 28.6432 10.6979 29.7247 12.2875 29.6722C13.6538 29.6271 14.2936 28.7194 14.2093 26.1388C14.1463 24.2154 13.872 22.6569 12.3054 22.7083Z" fill="#FF1212"/>
<path d="M13.9655 8.06013C13.954 7.36085 13.6145 6.81229 12.8713 6.82442C11.8025 6.84174 10.2578 7.13565 10.2578 7.13565L10.356 9.03658C10.356 9.03658 12.1414 9.02965 13.2651 9.01175C13.7311 9.00424 13.9759 8.66471 13.9655 8.06013Z" fill="#FF1212"/>
<path d="M26.6905 23.6778C25.818 23.6582 24.4512 23.7176 24.4512 23.7176L24.3086 26.0875C24.3086 26.0875 25.7984 26.3669 26.9209 26.3918C27.8789 26.4131 28.6278 26.1446 28.6457 25.3333C28.6671 24.3621 28.1006 23.7096 26.6905 23.6778Z" fill="#FF1212"/>
<path d="M33.3713 0H4.62816C2.07185 0 0 2.07185 0 4.62816L0.884634 16.3392C0.952194 17.2359 0.957969 18.1356 0.90138 19.0329L0 33.3718C0 35.9282 2.07185 38 4.62816 38H33.3713C35.9276 38 37.9994 35.9282 37.9994 33.3718L36.9167 18.9365C36.8561 18.1286 36.8619 17.3168 36.9346 16.5101L37.9994 4.62874C37.9994 2.07242 35.9276 0.000577437 33.3713 0.000577437V0ZM23.3533 3.49754L25.1468 8.62518L27.8908 3.77067L32.6789 4.6553L27.1118 12.3023L26.6378 17.6852L22.6263 16.9772L22.956 11.9934L18.4901 4.0207L23.3533 3.49638V3.49754ZM14.5347 32.8146L15.0168 34.3529L10.4539 34.5025L10.3292 33.1669C7.15272 32.7788 5.39615 30.6475 5.25872 26.4553C5.11436 22.0483 7.66837 19.2783 12.0546 19.1345C16.4558 18.9902 18.2222 21.4841 18.3908 26.6291C18.5028 30.0516 17.1285 32.0177 14.5347 32.8146ZM13.9647 17.6176C11.4858 17.658 6.97025 17.9779 6.97025 17.9779L6.01632 4.76559C6.01632 4.76559 10.2564 3.59974 13.0195 3.5547C16.2918 3.50158 18.2742 4.6322 18.3238 7.65335C18.3486 9.17202 17.3578 10.1762 16.4443 10.4147C17.3641 10.5561 18.9625 11.1105 18.9994 13.3723C19.052 16.5938 17.2608 17.5639 13.9659 17.6176H13.9647ZM32.7442 25.2681C32.6928 27.5796 31.7539 28.8678 30.0452 29.417H30.055L32.3596 34.4823L27.803 34.0451L26.1106 29.6427H26.1244C25.1451 29.5278 24.1692 29.3529 24.1692 29.3529L24.0277 33.6923L19.5405 33.1449L20.6191 19.8725C20.6191 19.8725 23.9867 19.4325 26.7163 19.4931C30.9674 19.5878 32.821 21.7994 32.7436 25.2681H32.7442Z" fill="#FF1212"/>
</g>
<defs>
<clipPath id="clip0_14803_11722">
<rect width="38" height="38" fill="white"/>
</clipPath>
</defs>
</svg>
